<?xml version="1.0" encoding="iso-8859-1"?>
<!-- Generator: Adobe Illustrator 19.0.0, SVG Export Plug-In . SVG Version: 6.00 Build 0)  -->
<svg version="1.1" id="Layer_1" xmlns="http://www.w3.org/2000/svg" x="0px" y="0px"
	 viewBox="0 0 295.238 295.238" style="enable-background:new 0 0 295.238 295.238;" width="100%" height="auto" >
<g>
	<g>
		<rect x="19.048" y="57.143" style="fill:#F9BA48;" width="152.381" height="104.762"/>
		<path style="fill:#333333;" d="M0,0v295.238h295.238V0H0z M285.714,9.524v28.571H9.524V9.524H285.714z M9.524,285.714V47.619
			h276.19v238.095H9.524z"/>
		<circle style="fill:#333333;" cx="23.81" cy="23.81" r="4.762"/>
		<circle style="fill:#333333;" cx="38.095" cy="23.81" r="4.762"/>
		<circle style="fill:#333333;" cx="52.381" cy="23.81" r="4.762"/>
		<path style="fill:#333333;" d="M76.19,82.267v54.51l47.695-27.252L76.19,82.267z M85.714,98.686l18.971,10.838l-18.971,10.838
			V98.686z"/>
		<rect x="180.952" y="57.143" style="fill:#333333;" width="95.238" height="9.524"/>
		<rect x="180.952" y="80.952" style="fill:#333333;" width="95.238" height="9.524"/>
		<rect x="180.952" y="104.762" style="fill:#333333;" width="95.238" height="9.524"/>
		<rect x="180.952" y="128.571" style="fill:#333333;" width="95.238" height="9.524"/>
		<rect x="180.952" y="152.381" style="fill:#333333;" width="95.238" height="9.524"/>
		<rect x="19.048" y="176.19" style="fill:#333333;" width="257.143" height="9.524"/>
		<path style="fill:#333333;" d="M95.238,200h-76.19v52.381h76.19V200z M85.714,242.857H28.571v-33.333h57.143
			C85.714,209.524,85.714,242.857,85.714,242.857z"/>
		<rect x="19.048" y="266.667" style="fill:#333333;" width="257.143" height="9.524"/>
		<path style="fill:#333333;" d="M109.524,200v52.381h76.19V200H109.524z M176.19,242.857h-57.143v-33.333h57.143V242.857z"/>
		<path style="fill:#333333;" d="M200,252.381h76.19V200H200V252.381z M209.524,209.524h57.143v33.333h-57.143L209.524,209.524
			L209.524,209.524z"/>
	</g>
</g>
<g>
</g>
<g>
</g>
<g>
</g>
<g>
</g>
<g>
</g>
<g>
</g>
<g>
</g>
<g>
</g>
<g>
</g>
<g>
</g>
<g>
</g>
<g>
</g>
<g>
</g>
<g>
</g>
<g>
</g>
</svg>
