<?xml version="1.0" encoding="iso-8859-1"?>
<!-- Generator: Adobe Illustrator 19.0.0, SVG Export Plug-In . SVG Version: 6.00 Build 0)  -->
<svg version="1.1" id="Layer_1" xmlns="http://www.w3.org/2000/svg" x="0px" y="0px"
	 viewBox="0 0 512 512" style="enable-background:new 0 0 512 512;" width="100%" height="auto">
<rect x="76.719" y="8.707" style="fill:#2BA5F7;" width="234.522" height="494.585"/>
<rect x="140.388" y="8.707" style="fill:#F95428;" width="234.522" height="494.585"/>
<rect x="200.76" y="8.707" style="fill:#F7B239;" width="234.522" height="494.585"/>
<circle style="fill:#F95428;" cx="262.293" cy="105.07" r="29.025"/>
<g>
	<rect x="233.268" y="226.975" style="fill:#2BA5F7;" width="67.338" height="67.338"/>
	<rect x="335.435" y="327.692" style="fill:#2BA5F7;" width="67.338" height="67.338"/>
</g>
<g>
	<path style="fill:#333333;" d="M435.279,0H200.757c-4.809,0-8.707,3.899-8.707,8.707v494.585c0,4.809,3.899,8.707,8.707,8.707
		h234.522c4.809,0,8.707-3.899,8.707-8.707V8.707C443.986,3.899,440.088,0,435.279,0z M426.571,17.415V34.83H209.465V17.415H426.571
		z M209.465,494.585V52.245h217.107v442.34H209.465z"/>
	<path style="fill:#333333;" d="M174.83,17.415c4.809,0,8.707-3.899,8.707-8.707S179.639,0,174.83,0h-34.444
		c-4.809,0-8.707,3.899-8.707,8.707v494.585c0,4.809,3.899,8.707,8.707,8.707h34.444c4.809,0,8.707-3.899,8.707-8.707
		c0-4.809-3.899-8.707-8.707-8.707h-25.737V52.245h25.737c4.809,0,8.707-3.899,8.707-8.707s-3.899-8.707-8.707-8.707h-25.737V17.415
		H174.83z"/>
	<path style="fill:#333333;" d="M340.501,440.945l-13.775,13.775v-26.312c0-4.809-3.899-8.707-8.707-8.707
		c-4.809,0-8.707,3.899-8.707,8.707v26.312l-13.775-13.775c-3.401-3.401-8.914-3.401-12.314,0c-3.401,3.401-3.401,8.914,0,12.314
		l28.639,28.639c1.7,1.7,3.929,2.551,6.157,2.551s4.457-0.85,6.157-2.551l28.639-28.639c3.401-3.401,3.401-8.914,0-12.314
		C349.415,437.545,343.901,437.545,340.501,440.945z"/>
	<path style="fill:#333333;" d="M111.166,17.415c4.809,0,8.707-3.899,8.707-8.707S115.974,0,111.166,0H76.721
		c-4.809,0-8.707,3.899-8.707,8.707v494.585c0,4.809,3.899,8.707,8.707,8.707h34.444c4.809,0,8.707-3.899,8.707-8.707
		c0-4.809-3.899-8.707-8.707-8.707H85.429V52.245h25.737c4.809,0,8.707-3.899,8.707-8.707s-3.899-8.707-8.707-8.707H85.429V17.415
		H111.166z"/>
	<path style="fill:#333333;" d="M262.29,142.803c20.805,0,37.732-16.927,37.732-37.732s-16.927-37.732-37.732-37.732
		s-37.732,16.927-37.732,37.732S241.485,142.803,262.29,142.803z M262.29,84.753c11.202,0,20.317,9.115,20.317,20.317
		s-9.115,20.317-20.317,20.317c-11.202,0-20.317-9.115-20.317-20.317S251.088,84.753,262.29,84.753z"/>
	<path style="fill:#333333;" d="M402.771,77.181h-71.982c-4.809,0-8.707,3.899-8.707,8.707c0,4.809,3.899,8.707,8.707,8.707h71.982
		c4.809,0,8.707-3.899,8.707-8.707C411.478,81.079,407.58,77.181,402.771,77.181z"/>
	<path style="fill:#333333;" d="M402.771,115.546h-71.982c-4.809,0-8.707,3.899-8.707,8.707s3.899,8.707,8.707,8.707h71.982
		c4.809,0,8.707-3.899,8.707-8.707S407.58,115.546,402.771,115.546z"/>
	<path style="fill:#333333;" d="M402.771,233.308h-71.982c-4.809,0-8.707,3.899-8.707,8.707s3.899,8.707,8.707,8.707h71.982
		c4.809,0,8.707-3.899,8.707-8.707S407.58,233.308,402.771,233.308z"/>
	<path style="fill:#333333;" d="M402.771,271.673h-71.982c-4.809,0-8.707,3.899-8.707,8.707c0,4.809,3.899,8.707,8.707,8.707h71.982
		c4.809,0,8.707-3.899,8.707-8.707C411.478,275.572,407.58,271.673,402.771,271.673z"/>
	<path style="fill:#333333;" d="M302.491,183.126l2.053,2.053l-2.053,2.053c-3.401,3.401-3.401,8.914,0,12.314
		c1.7,1.7,3.929,2.551,6.157,2.551s4.457-0.85,6.157-2.551l2.053-2.053l2.053,2.053c1.7,1.7,3.929,2.551,6.157,2.551
		s4.457-0.85,6.157-2.551c3.401-3.401,3.401-8.914,0-12.314l-2.053-2.053l2.053-2.053c3.401-3.401,3.401-8.914,0-12.314
		c-3.401-3.401-8.914-3.401-12.314,0l-2.053,2.053l-2.053-2.053c-3.401-3.401-8.914-3.401-12.314,0
		C299.09,174.214,299.09,179.727,302.491,183.126z"/>
	<path style="fill:#333333;" d="M402.771,176.472h-48.762c-4.809,0-8.707,3.899-8.707,8.707s3.899,8.707,8.707,8.707h48.762
		c4.809,0,8.707-3.899,8.707-8.707S407.58,176.472,402.771,176.472z"/>
	<path style="fill:#333333;" d="M233.265,193.887h48.762c4.809,0,8.707-3.899,8.707-8.707s-3.899-8.707-8.707-8.707h-48.762
		c-4.809,0-8.707,3.899-8.707,8.707S228.456,193.887,233.265,193.887z"/>
	<path style="fill:#333333;" d="M233.265,303.02h67.338c4.809,0,8.707-3.899,8.707-8.707v-67.338c0-4.809-3.899-8.707-8.707-8.707
		h-67.338c-4.809,0-8.707,3.899-8.707,8.707v67.338C224.558,299.122,228.456,303.02,233.265,303.02z M241.973,247.996l37.609,37.609
		h-37.609V247.996z M291.896,273.292l-37.608-37.609h37.609v37.609H291.896z"/>
	<path style="fill:#333333;" d="M313.955,379.989c0-4.809-3.899-8.707-8.707-8.707h-71.982c-4.809,0-8.707,3.899-8.707,8.707
		c0,4.809,3.899,8.707,8.707,8.707h71.982C310.056,388.696,313.955,384.799,313.955,379.989z"/>
	<path style="fill:#333333;" d="M233.265,350.331h71.982c4.809,0,8.707-3.899,8.707-8.707c0-4.809-3.899-8.707-8.707-8.707h-71.982
		c-4.809,0-8.707,3.899-8.707,8.707C224.558,346.432,228.456,350.331,233.265,350.331z"/>
	<path style="fill:#333333;" d="M402.771,318.984h-67.338c-4.809,0-8.707,3.899-8.707,8.707v67.338c0,4.809,3.899,8.707,8.707,8.707
		h67.338c4.809,0,8.707-3.899,8.707-8.707v-67.338C411.478,322.883,407.58,318.984,402.771,318.984z M394.064,374.008
		l-37.609-37.609h37.609V374.008z M344.141,348.713l37.609,37.609h-37.609V348.713z"/>
</g>
<g>
</g>
<g>
</g>
<g>
</g>
<g>
</g>
<g>
</g>
<g>
</g>
<g>
</g>
<g>
</g>
<g>
</g>
<g>
</g>
<g>
</g>
<g>
</g>
<g>
</g>
<g>
</g>
<g>
</g>
</svg>
